<svg width="36" height="36" viewBox="0 0 36 36" fill="none" xmlns="http://www.w3.org/2000/svg">
<path fill-rule="evenodd" clip-rule="evenodd" d="M24.7928 9C24.7648 8.87895 24.7357 8.75763 24.7052 8.63619C24.3092 7.05207 23.6857 5.33075 22.6688 3.975C21.6203 2.57703 20.0894 1.5 18.0001 1.5C15.9107 1.5 14.3798 2.57703 13.3313 3.975C12.3145 5.33075 11.6909 7.05207 11.2949 8.63621C11.2645 8.75763 11.2353 8.87895 11.2073 9H8.80675C6.43766 9 4.47431 10.8368 4.31672 13.2007L3.21671 29.7006C3.04357 32.298 5.10367 34.5 7.70675 34.5H28.2934C30.8965 34.5 32.9566 32.298 32.7835 29.7006L31.6834 13.2007C31.5259 10.8368 29.5625 9 27.1934 9H24.7928ZM12.0001 16.5C12.8596 16.5 13.4972 15.8526 13.5001 14.9973C13.5003 14.9616 13.5008 14.9259 13.5014 14.8902C13.5027 14.8112 13.5054 14.6918 13.5109 14.5379C13.5219 14.2298 13.544 13.785 13.5887 13.2496C13.6203 12.8696 13.663 12.4479 13.7202 12H22.28C22.3372 12.4479 22.3798 12.8696 22.4116 13.2496C22.4561 13.785 22.4783 14.2298 22.4893 14.5379C22.4948 14.6918 22.4975 14.8112 22.4989 14.8902C22.4995 14.927 22.4999 14.9638 22.5001 15.0006C22.5001 15.0006 22.5001 16.5 24.0001 16.5C25.5001 16.5 25.5001 14.998 25.5001 14.998C25.4999 14.9454 25.4993 14.8928 25.4984 14.8402C25.4968 14.7435 25.4936 14.605 25.4873 14.4308C25.475 14.0827 25.4503 13.59 25.4011 13.0004C25.3756 12.693 25.343 12.3572 25.3019 12H27.1934C27.9832 12 28.6376 12.6123 28.6901 13.4002L29.7901 29.9002C29.8478 30.7661 29.1611 31.5 28.2934 31.5H7.70675C6.83906 31.5 6.15236 30.7661 6.21007 29.9002L7.31008 13.4002C7.36261 12.6123 8.01706 12 8.80675 12H10.6982C10.6571 12.3572 10.6246 12.693 10.599 13.0004C10.5499 13.59 10.5252 14.0827 10.5128 14.4308C10.5065 14.605 10.5034 14.7435 10.5018 14.8402C10.5009 14.8918 10.5003 14.9433 10.5001 14.9949C10.499 15.8508 11.1426 16.5 12.0001 16.5ZM14.3004 9H21.6998C21.353 7.72983 20.8816 6.59199 20.2688 5.775C19.6298 4.92297 18.9107 4.5 18.0001 4.5C17.0894 4.5 16.3703 4.92297 15.7313 5.775C15.1186 6.59199 14.6472 7.72983 14.3004 9Z" fill="#0F0F0F"/>
</svg>
