<svg width="375" height="109" viewBox="0 0 375 109" fill="none" xmlns="http://www.w3.org/2000/svg">
<path d="M79.5745 24.5493L50.3404 54.5784L80.599 83.5907L109.833 53.5616L79.5745 24.5493ZM80.4407 74.5076L59.4923 54.422L79.7314 33.6325L100.68 53.7181L80.4407 74.5076Z" fill="black"/>
<path d="M91.5281 53.8747L79.8899 42.7158L68.6457 54.2658L80.2839 65.4247L91.5281 53.8747Z" fill="black"/>
<path d="M41.1873 54.7351L29.5491 43.5762L18.3049 55.1261L29.9431 66.285L41.1873 54.7351Z" fill="black"/>
<path d="M45.8428 59.1985L30.1015 75.3679L9.15308 55.2823L29.3922 34.4928L45.6851 50.1147L50.1823 45.4953L29.2339 25.4097L-0.00015085 55.4387L30.2584 84.451L50.4975 63.6615L45.8428 59.1985Z" fill="black"/>
<path d="M138.041 67.4312V46.9832H129.977V42.2312H151.937V46.9832H143.873V67.4312H138.041ZM155.075 67.4312V42.2312H165.983C168.239 42.2312 170.183 42.6032 171.815 43.3472C173.447 44.0672 174.707 45.1112 175.595 46.4792C176.483 47.8472 176.927 49.4792 176.927 51.3752C176.927 53.2472 176.483 54.8672 175.595 56.2352C174.707 57.5792 173.447 58.6112 171.815 59.3312C170.183 60.0512 168.239 60.4112 165.983 60.4112H158.315L160.907 57.8552V67.4312H155.075ZM171.095 67.4312L164.795 58.2872H171.023L177.395 67.4312H171.095ZM160.907 58.5032L158.315 55.7672H165.659C167.459 55.7672 168.803 55.3832 169.691 54.6152C170.579 53.8232 171.023 52.7432 171.023 51.3752C171.023 49.9832 170.579 48.9032 169.691 48.1352C168.803 47.3672 167.459 46.9832 165.659 46.9832H158.315L160.907 44.2112V58.5032ZM186.912 52.3832H199.044V56.9192H186.912V52.3832ZM187.344 62.7512H201.06V67.4312H181.548V42.2312H200.592V46.9112H187.344V62.7512ZM205.7 67.4312V42.2312H210.524L225.392 60.3752H223.052V42.2312H228.812V67.4312H224.024L209.12 49.2872H211.46V67.4312H205.7ZM234.774 67.4312V42.2312H246.222C248.958 42.2312 251.37 42.7592 253.458 43.8152C255.546 44.8472 257.178 46.2992 258.354 48.1712C259.53 50.0432 260.118 52.2632 260.118 54.8312C260.118 57.3752 259.53 59.5952 258.354 61.4912C257.178 63.3632 255.546 64.8272 253.458 65.8832C251.37 66.9152 248.958 67.4312 246.222 67.4312H234.774ZM240.606 62.6432H245.934C247.614 62.6432 249.066 62.3312 250.29 61.7072C251.538 61.0592 252.498 60.1472 253.17 58.9712C253.866 57.7952 254.214 56.4152 254.214 54.8312C254.214 53.2232 253.866 51.8432 253.17 50.6912C252.498 49.5152 251.538 48.6152 250.29 47.9912C249.066 47.3432 247.614 47.0192 245.934 47.0192H240.606V62.6432ZM276.757 67.8632C274.765 67.8632 272.917 67.5392 271.213 66.8912C269.533 66.2432 268.069 65.3312 266.821 64.1552C265.597 62.9792 264.637 61.5992 263.941 60.0152C263.269 58.4312 262.933 56.7032 262.933 54.8312C262.933 52.9592 263.269 51.2312 263.941 49.6472C264.637 48.0632 265.609 46.6832 266.857 45.5072C268.105 44.3312 269.569 43.4192 271.249 42.7712C272.929 42.1232 274.753 41.7992 276.721 41.7992C278.713 41.7992 280.537 42.1232 282.193 42.7712C283.873 43.4192 285.325 44.3312 286.549 45.5072C287.797 46.6832 288.769 48.0632 289.465 49.6472C290.161 51.2072 290.509 52.9352 290.509 54.8312C290.509 56.7032 290.161 58.4432 289.465 60.0512C288.769 61.6352 287.797 63.0152 286.549 64.1912C285.325 65.3432 283.873 66.2432 282.193 66.8912C280.537 67.5392 278.725 67.8632 276.757 67.8632ZM276.721 62.8952C277.849 62.8952 278.881 62.7032 279.817 62.3192C280.777 61.9352 281.617 61.3832 282.337 60.6632C283.057 59.9432 283.609 59.0912 283.993 58.1072C284.401 57.1232 284.605 56.0312 284.605 54.8312C284.605 53.6312 284.401 52.5392 283.993 51.5552C283.609 50.5712 283.057 49.7192 282.337 48.9992C281.641 48.2792 280.813 47.7272 279.853 47.3432C278.893 46.9592 277.849 46.7672 276.721 46.7672C275.593 46.7672 274.549 46.9592 273.589 47.3432C272.653 47.7272 271.825 48.2792 271.105 48.9992C270.385 49.7192 269.821 50.5712 269.413 51.5552C269.029 52.5392 268.837 53.6312 268.837 54.8312C268.837 56.0072 269.029 57.0992 269.413 58.1072C269.821 59.0912 270.373 59.9432 271.069 60.6632C271.789 61.3832 272.629 61.9352 273.589 62.3192C274.549 62.7032 275.593 62.8952 276.721 62.8952ZM294.892 67.4312V42.2312H305.8C308.056 42.2312 310 42.6032 311.632 43.3472C313.264 44.0672 314.524 45.1112 315.412 46.4792C316.3 47.8472 316.744 49.4792 316.744 51.3752C316.744 53.2472 316.3 54.8672 315.412 56.2352C314.524 57.5792 313.264 58.6112 311.632 59.3312C310 60.0512 308.056 60.4112 305.8 60.4112H298.132L300.724 57.8552V67.4312H294.892ZM310.912 67.4312L304.612 58.2872H310.84L317.212 67.4312H310.912ZM300.724 58.5032L298.132 55.7672H305.476C307.276 55.7672 308.62 55.3832 309.508 54.6152C310.396 53.8232 310.84 52.7432 310.84 51.3752C310.84 49.9832 310.396 48.9032 309.508 48.1352C308.62 47.3672 307.276 46.9832 305.476 46.9832H298.132L300.724 44.2112V58.5032ZM318.052 67.4312L329.284 42.2312H335.044L346.312 67.4312H340.192L330.976 45.1832H333.28L324.028 67.4312H318.052ZM323.668 62.0312L325.216 57.6032H338.176L339.76 62.0312H323.668Z" fill="black"/>
</svg>
